<?xml version="1.0" standalone="no"?>
<!DOCTYPE svg PUBLIC "-//W3C//DTD SVG 20010904//EN"
 "http://www.w3.org/TR/2001/REC-SVG-20010904/DTD/svg10.dtd">
<svg version="1.0" xmlns="http://www.w3.org/2000/svg"
 width="1024.000000pt" height="1024.000000pt" viewBox="0 0 1024.000000 1024.000000"
 preserveAspectRatio="xMidYMid meet">

<g transform="translate(0.000000,1024.000000) scale(0.100000,-0.100000)"
fill="#000000" stroke="none">
<path d="M0 9708 c0 -348 4 -528 10 -518 5 8 10 35 10 60 0 43 24 154 50 230
33 97 129 265 202 351 51 61 126 139 133 139 3 0 18 11 33 25 15 14 32 25 39
25 6 0 13 3 15 8 4 10 75 54 118 74 117 54 153 68 220 88 41 13 108 25 148 28
40 2 75 9 78 13 3 5 -228 9 -525 9 l-531 0 0 -532z"/>
<path d="M9252 10225 c42 -7 109 -23 150 -34 40 -12 78 -23 83 -24 10 -3 90
-38 135 -60 83 -39 206 -130 288 -213 50 -51 92 -96 92 -100 0 -4 10 -21 23
-38 41 -55 88 -137 108 -190 11 -28 24 -60 28 -71 20 -43 41 -120 41 -146 0
-15 5 -31 10 -34 6 -3 10 -33 10 -65 0 -32 5 -62 10 -65 7 -4 10 173 10 524
l0 531 -532 -1 c-471 -1 -524 -3 -456 -14z"/>
<path d="M2680 5120 l0 -2390 400 0 400 0 0 1742 c0 995 4 1738 9 1733 5 -6
22 -46 39 -90 29 -75 76 -190 267 -660 43 -104 132 -323 197 -485 66 -162 148
-365 183 -450 34 -85 97 -238 138 -340 41 -102 109 -270 151 -375 42 -104 81
-199 86 -210 11 -25 117 -286 245 -605 55 -135 104 -248 110 -252 19 -14 410
-9 427 5 8 6 61 127 118 267 57 140 161 399 233 575 71 176 189 469 263 650
73 182 152 375 174 430 23 55 84 204 135 330 51 127 123 304 160 395 38 91
127 312 200 492 73 180 135 324 139 321 3 -4 6 -786 6 -1740 l0 -1733 400 0
400 0 0 2390 0 2390 -514 0 -514 0 -42 -107 c-43 -111 -366 -904 -445 -1093
-24 -58 -114 -278 -200 -490 -85 -212 -160 -394 -165 -405 -12 -25 -34 -80
-163 -400 -58 -143 -140 -345 -182 -450 -43 -104 -97 -239 -120 -300 -24 -60
-52 -132 -64 -158 -11 -27 -21 -55 -21 -63 0 -37 -20 -2 -72 129 -32 78 -121
300 -198 492 -77 193 -145 359 -150 370 -5 11 -65 160 -134 330 -68 171 -159
396 -201 500 -126 307 -250 612 -362 890 -58 143 -120 296 -138 340 -18 44
-59 143 -90 220 -31 77 -63 152 -71 168 l-15 27 -509 0 -510 0 0 -2390z"/>
<path d="M10227 1063 c-4 -3 -7 -28 -7 -55 0 -45 -40 -221 -60 -263 -5 -11
-19 -45 -31 -75 -47 -114 -153 -264 -253 -357 -110 -104 -272 -199 -411 -244
-38 -12 -78 -26 -87 -30 -10 -5 -56 -12 -103 -15 -201 -16 -50 -24 440 -24
l525 0 0 535 c0 294 -1 535 -3 535 -2 0 -7 -3 -10 -7z"/>
<path d="M0 530 l0 -530 531 0 c351 0 528 3 524 10 -3 5 -30 10 -58 10 -80 0
-192 30 -305 81 -35 16 -65 29 -68 29 -11 0 -172 104 -204 132 -83 73 -140
128 -140 136 0 5 -9 17 -20 27 -28 25 -118 167 -142 224 -11 25 -26 60 -34 78
-8 17 -14 37 -14 45 0 8 -4 18 -9 23 -12 13 -33 125 -38 203 -3 34 -9 62 -14
62 -5 0 -9 -216 -9 -530z"/>
</g>
</svg>
